<?xml version="1.0" encoding="utf-8"?>
<!-- Generator: Adobe Illustrator 25.0.0, SVG Export Plug-In . SVG Version: 6.00 Build 0)  -->
<svg version="1.1" id="Calque_1" xmlns="http://www.w3.org/2000/svg" xmlns:xlink="http://www.w3.org/1999/xlink" x="0px" y="0px"
	 viewBox="0 0 14.6 11.7" style="enable-background:new 0 0 14.6 11.7;" xml:space="preserve">
<style type="text/css">
	.st0{fill:#BDBDBD;}
</style>
<path class="st0" d="M12.9,0.1c-0.3,0-1.4,1.5-1.8,1.8c-0.4,0.3-0.6,2.3-0.7,3c-1,4.2-6.7,3.3-6.2-1.5c0,0-1.9-3.6-2.5-3.4
	S0.1,2.6,0.1,2.6c-1.4,13.5,17.2,11,14.1-0.5l-0.9-1.7C13.4,0.4,13.2,0,12.9,0.1z M1.7,2.1c0-0.4,0.5-0.3,0.5,0S1.6,2.5,1.7,2.1z
	 M13,2.4c0,0.3-0.6,0.3-0.5-0.1C12.6,1.9,13,2,13,2.4z"/>
</svg>
