<?xml version="1.0" encoding="utf-8"?>
<!-- Generator: Adobe Illustrator 25.0.0, SVG Export Plug-In . SVG Version: 6.00 Build 0)  -->
<svg version="1.1" id="Calque_1" xmlns="http://www.w3.org/2000/svg" xmlns:xlink="http://www.w3.org/1999/xlink" x="0px" y="0px"
	 viewBox="0 0 15.2 11.7" style="enable-background:new 0 0 15.2 11.7;" xml:space="preserve">
<style type="text/css">
	.st0{fill:#BDBDBD;}
</style>
<path class="st0" d="M13.5,0.1c-0.3,0-1.5,1.5-1.9,1.8s-0.6,2.3-0.7,3c-1,4.2-7,3.3-6.5-1.5c0,0-2-3.6-2.6-3.4S0.1,2.6,0.1,2.6
	c-1.5,13.5,18,11,14.8-0.5L14,0.4C14,0.4,13.8,0,13.5,0.1z M1.8,2.1c0-0.4,0.5-0.3,0.5,0S1.7,2.5,1.8,2.1z M13.6,2.4
	c0,0.3-0.6,0.3-0.5-0.1S13.6,2,13.6,2.4z"/>
</svg>
